HIERARCHY
ROOT Hips
{
 OFFSET 0.000000 0.000000 0.000000
 CHANNELS 6 Xposition Yposition Zposition Yrotation Xrotation Zrotation
 JOINT Chest
 {
  OFFSET 0.000000 9.585900 0.002600
  CHANNELS 3 Yrotation Xrotation Zrotation
  JOINT Chest2
  {
   OFFSET 0.000000 9.601200 -0.005300
   CHANNELS 3 Yrotation Xrotation Zrotation
   JOINT Chest3
   {
    OFFSET 0.000000 9.561800 0.000000
    CHANNELS 3 Yrotation Xrotation Zrotation
    JOINT Chest4
    {
     OFFSET 0.000000 9.552100 0.000000
     CHANNELS 3 Yrotation Xrotation Zrotation
     JOINT Neck
     {
      OFFSET 0.000000 14.453000 0.000000
      CHANNELS 3 Yrotation Xrotation Zrotation
      JOINT Head
      {
       OFFSET 0.000000 8.936500 -0.011300
       CHANNELS 3 Yrotation Xrotation Zrotation
       End Site
       {
        OFFSET 0.000000 17.073600 -0.006000
       }
      }
     }
     JOINT RightCollar
     {
      OFFSET -2.921100 9.558500 0.000000
      CHANNELS 3 Yrotation Xrotation Zrotation
      JOINT RightShoulder
      {
       OFFSET -13.519700 0.000000 0.000000
       CHANNELS 3 Yrotation Xrotation Zrotation
       JOINT RightElbow
       {
        OFFSET 0.000000 -29.696600 0.000000
        CHANNELS 3 Yrotation Xrotation Zrotation
        JOINT RightWrist
        {
         OFFSET 0.000000 -24.004700 0.000000
         CHANNELS 3 Yrotation Xrotation Zrotation
         End Site
         {
          OFFSET 0.000000 -17.728500 0.000000
         }
        }
       }
      }
     }
     JOINT LeftCollar
     {
      OFFSET 2.921100 9.558500 0.000000
      CHANNELS 3 Yrotation Xrotation Zrotation
      JOINT LeftShoulder
      {
       OFFSET 13.519700 0.000000 0.000000
       CHANNELS 3 Yrotation Xrotation Zrotation
       JOINT LeftElbow
       {
        OFFSET 0.000000 -29.696600 0.000000
        CHANNELS 3 Yrotation Xrotation Zrotation
        JOINT LeftWrist
        {
         OFFSET 0.000000 -24.004700 0.000000
         CHANNELS 3 Yrotation Xrotation Zrotation
         End Site
         {
          OFFSET 0.000000 -17.728500 0.000000
         }
        }
       }
      }
     }
    }
   }
  }
 }
 JOINT RightHip
 {
  OFFSET -7.771700 -0.012900 -0.001300
  CHANNELS 3 Yrotation Xrotation Zrotation
  JOINT RightKnee
  {
   OFFSET 0.000000 -40.869800 0.001200
   CHANNELS 3 Yrotation Xrotation Zrotation
   JOINT RightAnkle
   {
    OFFSET 0.000000 -39.717900 0.002100
    CHANNELS 3 Yrotation Xrotation Zrotation
    JOINT RightToe
    {
     OFFSET 0.000000 -4.965400 11.033500
     CHANNELS 3 Yrotation Xrotation Zrotation
     End Site
     {
      OFFSET 0.000000 -1.423100 5.872300
     }
    }
   }
  }
 }
 JOINT LeftHip
 {
  OFFSET 7.771700 -0.012900 -0.001300
  CHANNELS 3 Yrotation Xrotation Zrotation
  JOINT LeftKnee
  {
   OFFSET 0.000000 -40.869800 0.001200
   CHANNELS 3 Yrotation Xrotation Zrotation
   JOINT LeftAnkle
   {
    OFFSET 0.000000 -39.717900 0.002100
    CHANNELS 3 Yrotation Xrotation Zrotation
    JOINT LeftToe
    {
     OFFSET 0.000000 -4.965400 11.033500
     CHANNELS 3 Yrotation Xrotation Zrotation
     End Site
     {
      OFFSET 0.000000 -1.423100 5.872300
     }
    }
   }
  }
 }
}
MOTION
Frames: 5
Frame Time: 0.008333
0.000000 85.388000 0.000000 0.000000 -5.767877 0.000000 0.000000 11.653817 0.000000 0.000000 -5.885947 0.000000 0.000000 -0.000000 0.000000 0.000000 -0.000000 0.000000 0.000000 12.528835 0.000000 0.000000 0.711642 0.000000 0.000000 -0.000000 0.000000 0.000000 0.000000 -90.000000 0.000000 -2.309062 0.000000 0.000000 2.309062 0.000000 0.000000 -0.000000 0.000000 0.000000 -0.000000 90.000000 0.000000 -2.309062 0.000000 0.000000 2.309062 0.000000 0.000000 8.520406 0.000000 0.000000 1.905762 0.000000 -0.000000 -4.658285 0.000000 0.000000 -0.000000 0.000000 0.000000 8.520406 0.000000 0.000000 1.905762 0.000000 -0.000000 -4.658285 0.000000 0.000000 -0.000000 0.000000
-229.146713 57.599467 23.492803 178.129014 -45.816845 -3.538743 5.361998 22.867310 2.597947 2.824402 13.161831 1.230059 3.618619 16.399097 1.661984 2.838830 13.128193 1.236658 3.354435 18.115962 3.941343 4.879325 -2.198846 6.150063 3.482562 2.529580 2.159375 6.433038 -17.944661 -14.167764 -105.446510 -63.618732 150.189236 17.304470 -0.242963 -15.392652 -9.441458 1.199598 0.311835 9.563758 -15.742893 10.126334 99.709005 -54.978032 -143.943004 -2.736813 -18.211049 19.424683 7.682031 -25.131327 -3.119947 -46.458838 71.916205 -50.891432 2.663067 -14.247893 14.170112 -0.074102 -0.102154 0.041728 -10.916772 -24.431995 8.488261 53.187086 82.117484 53.559750 -1.252136 -17.852969 -20.921914 0.099607 0.061111 0.059509
-229.140313 57.598282 23.494892 178.084672 -45.759143 -3.506096 5.356494 22.887950 2.560422 2.827670 13.149928 1.219427 3.612896 16.407186 1.643669 2.857527 13.101115 1.236368 3.269857 18.024695 3.947940 4.762701 -2.429136 6.194073 3.424307 2.608944 2.112401 6.072141 -17.840302 -13.824279 -105.684310 -63.601539 150.449807 17.175980 -0.330058 -15.420490 -9.455814 1.230519 0.281958 9.301344 -15.583089 10.277053 98.376071 -54.554865 -143.307026 -2.547731 -18.242069 19.200195 7.676416 -25.212763 -3.109100 -46.476199 71.928983 -50.941854 2.660773 -14.229413 14.167385 -0.063734 -0.126111 0.025565 -10.934117 -24.480379 8.519866 53.157393 82.123269 53.497159 -1.243669 -17.855356 -20.925444 0.094707 0.061465 0.056073
-229.128077 57.599465 23.494136 178.057013 -45.713853 -3.513331 5.356373 22.904490 2.561024 2.842415 13.114454 1.218958 3.601922 16.422435 1.629373 2.862077 13.097489 1.230600 3.190337 17.925919 3.953877 4.637494 -2.636774 6.234598 3.369411 2.673140 2.060559 5.687589 -17.725496 -13.480074 -105.951069 -63.580878 150.751253 17.032465 -0.421182 -15.445469 -9.463722 1.245992 0.253383 9.026468 -15.415890 10.415399 97.116467 -54.150069 -142.725968 -2.369373 -18.283215 18.953200 7.653811 -25.274961 -3.092206 -46.485046 71.947612 -50.913577 2.646829 -14.227746 14.097355 -0.014690 -0.131008 0.033132 -10.967731 -24.509434 8.574567 53.151349 82.126452 53.468285 -1.230146 -17.861406 -20.933162 0.083954 0.064646 0.049567
-229.119822 57.599707 23.492083 178.024680 -45.661628 -3.488457 5.358909 22.891360 2.541292 2.844973 13.099506 1.214428 3.608363 16.410502 1.628591 2.831402 13.137135 1.210434 3.135843 17.801821 3.960433 4.506056 -2.827184 6.271754 3.330108 2.707903 2.008552 5.295593 -17.613208 -13.142937 -106.231330 -63.550286 151.069645 16.891580 -0.512810 -15.460767 -9.450089 1.230238 0.231137 8.745149 -15.245322 10.547857 95.965119 -53.778967 -142.224850 -2.184706 -18.341093 18.688850 7.640080 -25.340816 -3.110248 -46.452648 71.972523 -50.892194 2.672740 -14.225164 14.091136 -0.028599 -0.149005 0.009478 -10.981505 -24.554016 8.598905 53.160250 82.133144 53.458405 -1.214758 -17.861171 -20.939697 0.080496 0.058762 0.042391
